<svg width="32" height="32" viewBox="0 0 32 32" fill="none" xmlns="http://www.w3.org/2000/svg">
<g clip-path="url(#clip0_31_264)">
<path d="M27.3069 13.8425L27.1656 13.2431H14.1381V18.7569H21.9219C21.1138 22.5944 17.3638 24.6144 14.3006 24.6144C12.0719 24.6144 9.7225 23.6769 8.1675 22.17C7.34708 21.3623 6.69403 20.4006 6.24574 19.3402C5.79746 18.2797 5.56273 17.1413 5.555 15.99C5.555 13.6675 6.59875 11.3444 8.1175 9.81625C9.63625 8.28813 11.93 7.43313 14.2106 7.43313C16.8225 7.43313 18.6944 8.82 19.3944 9.4525L23.3125 5.555C22.1631 4.545 19.0056 2 14.0844 2C10.2875 2 6.64687 3.45438 3.98562 6.10687C1.35937 8.71875 0 12.4956 0 16C0 19.5044 1.28625 23.0925 3.83125 25.725C6.55062 28.5325 10.4019 30 14.3675 30C17.9756 30 21.3956 28.5863 23.8331 26.0212C26.2294 23.4963 27.4688 20.0025 27.4688 16.34C27.4688 14.7981 27.3137 13.8825 27.3069 13.8425Z" fill="black" stroke="black" stroke-width="0.0625"/>
</g>
<defs>
<clipPath id="clip0_31_264">
<rect width="32" height="32" fill="white"/>
</clipPath>
</defs>
</svg>
