<svg width="32" height="32" viewBox="0 0 32 32" fill="none" xmlns="http://www.w3.org/2000/svg">
<path d="M21.8206 8.7356C19.3006 8.7356 18.2356 9.9381 16.4806 9.9381C14.6812 9.9381 13.3087 8.74435 11.125 8.74435C8.98746 8.74435 6.70809 10.0493 5.26059 12.2725C3.22809 15.4075 3.57309 21.3118 6.86496 26.3418C8.04246 28.1425 9.61496 30.1618 11.6775 30.1837H11.715C13.5075 30.1837 14.04 29.01 16.5068 28.9962H16.5443C18.9743 28.9962 19.4618 30.1768 21.2468 30.1768H21.2843C23.3468 30.155 25.0037 27.9175 26.1812 26.1237C27.0287 24.8337 27.3437 24.1862 27.9937 22.7268C23.2318 20.9193 22.4668 14.1687 27.1762 11.5806C25.7387 9.7806 23.7187 8.7381 21.8143 8.7381L21.8206 8.7356Z" fill="black" stroke="black" stroke-width="0.0625"/>
<path d="M21.2657 2C19.7657 2.10187 18.0157 3.05687 16.9907 4.30375C16.0607 5.43375 15.2957 7.11 15.5957 8.73563H15.7157C17.3132 8.73563 18.9482 7.77375 19.9032 6.54125C20.8232 5.36813 21.5207 3.70563 21.2657 2Z" fill="black" stroke="black" stroke-width="0.0625"/>
</svg>
