<svg width="72" height="72" viewBox="0 0 72 72" fill="none" xmlns="http://www.w3.org/2000/svg">
<g id="search">
<path id="Vector" d="M64.222 59.258L50.9906 46.0266C54.1762 41.7858 55.8958 36.6239 55.89 31.32C55.89 17.7722 44.8678 6.75 31.32 6.75C17.7722 6.75 6.75 17.7722 6.75 31.32C6.75 44.8678 17.7722 55.89 31.32 55.89C36.6239 55.8958 41.7858 54.1762 46.0266 50.9906L59.258 64.222C59.9277 64.8207 60.8013 65.1403 61.6993 65.1152C62.5973 65.0901 63.4516 64.7221 64.0869 64.0869C64.7221 63.4516 65.0901 62.5973 65.1152 61.6993C65.1403 60.8013 64.8207 59.9277 64.222 59.258ZM13.77 31.32C13.77 27.8489 14.7993 24.4558 16.7277 21.5697C18.6561 18.6837 21.3971 16.4342 24.6039 15.1059C27.8107 13.7776 31.3395 13.43 34.7438 14.1072C38.1482 14.7844 41.2753 16.4559 43.7297 18.9103C46.1841 21.3647 47.8556 24.4918 48.5328 27.8962C49.21 31.3005 48.8624 34.8293 47.5341 38.0361C46.2058 41.2429 43.9563 43.9839 41.0703 45.9123C38.1842 47.8407 34.7911 48.87 31.32 48.87C26.6672 48.8644 22.2065 47.0136 18.9164 43.7236C15.6264 40.4335 13.7756 35.9728 13.77 31.32Z" fill="black" stroke="black" stroke-width="0.0625"/>
</g>
</svg>
